<svg xmlns="http://www.w3.org/2000/svg" xmlns:xlink="http://www.w3.org/1999/xlink" width="500" zoomAndPan="magnify" viewBox="0 0 375 374.999991" height="500" preserveAspectRatio="xMidYMid meet" version="1.0"><defs><clipPath id="id1"><path d="M 57.15625 0 L 133.84375 0 L 133.84375 318.246094 L 57.15625 318.246094 Z M 57.15625 0 " clip-rule="nonzero"/></clipPath><clipPath id="id2"><path d="M 132.785156 0 L 317.164062 0 L 317.164062 318.246094 L 132.785156 318.246094 Z M 132.785156 0 " clip-rule="nonzero"/></clipPath></defs><path fill="#ffffff" d="M 89.207031 -9.328125 C 34.84375 -9.328125 -9.230469 34.75 -9.230469 89.109375 L -9.230469 285.984375 C -9.230469 340.347656 34.84375 384.421875 89.207031 384.421875 L 286.082031 384.421875 C 340.445312 384.421875 384.519531 340.347656 384.519531 285.984375 L 384.519531 89.109375 C 384.519531 34.75 340.445312 -9.328125 286.082031 -9.328125 Z M 89.207031 -9.328125 " fill-opacity="1" fill-rule="nonzero"/><path fill="#191720" d="M 93.796875 -0.046875 C 42.023438 -0.046875 0.046875 41.929688 0.046875 93.703125 L 0.046875 281.203125 C 0.046875 332.976562 42.023438 374.953125 93.796875 374.953125 L 281.296875 374.953125 C 333.070312 374.953125 375.046875 332.976562 375.046875 281.203125 L 375.046875 93.703125 C 375.046875 41.929688 333.070312 -0.046875 281.296875 -0.046875 Z M 93.796875 -0.046875 " fill-opacity="1" fill-rule="nonzero"/><g clip-path="url(#id1)"><path fill="#25f4ee" d="M 568.253906 -115.835938 L 134.929688 318.246094 L -65.703125 66.898438 L -29.726562 38.253906 L 138.621094 248.941406 L 535.507812 -148.640625 Z M 568.253906 -115.835938 " fill-opacity="1" fill-rule="nonzero"/></g><g clip-path="url(#id2)"><path fill="#fe2c55" d="M 568.253906 -115.835938 L 134.929688 318.246094 L -65.703125 66.898438 L -29.726562 38.253906 L 138.621094 248.941406 L 535.507812 -148.640625 Z M 568.253906 -115.835938 " fill-opacity="1" fill-rule="nonzero"/></g></svg>